<?xml version="1.0" standalone="no"?><!DOCTYPE svg PUBLIC "-//W3C//DTD SVG 1.1//EN" "http://www.w3.org/Graphics/SVG/1.1/DTD/svg11.dtd"><svg t="1600235522395" class="icon" viewBox="0 0 1024 1024" version="1.1" xmlns="http://www.w3.org/2000/svg" p-id="25519" xmlns:xlink="http://www.w3.org/1999/xlink" width="64" height="64"><defs><style type="text/css"></style></defs><path d="M626.074918 0.199956v94.879139h199.056233L629.974061 305.232888c-149.967026-104.477028-378.816708-91.079974-514.886791 55.387821-147.967466 159.464938-137.569752 410.809674 21.995164 558.877118 159.464938 148.067444 407.810333 137.16984 555.977756-22.395076 136.070082-146.467796 147.167642-361.820445 12.797186-521.385361l205.154892-221.051397v225.350452h94.979117V0.199956h-379.916467z m-5.998681 829.317655C510.900242 947.09176 326.340821 953.990243 208.566717 844.814248 90.992568 735.538275 84.094085 550.878877 193.470036 433.20475c109.175995-117.574149 293.735415-124.472632 411.409542-15.196659C722.453727 527.284064 729.252232 711.843485 620.076237 829.517611z" p-id="25520" data-spm-anchor-id="a313x.7781069.0.i6" fill="#146ede" class="selected"></path></svg>