<?xml version="1.0" standalone="no"?><!DOCTYPE svg PUBLIC "-//W3C//DTD SVG 1.1//EN" "http://www.w3.org/Graphics/SVG/1.1/DTD/svg11.dtd"><svg t="1599100486604" class="icon" viewBox="0 0 1024 1024" version="1.1" xmlns="http://www.w3.org/2000/svg" p-id="2731" xmlns:xlink="http://www.w3.org/1999/xlink" width="48" height="48"><defs><style type="text/css"></style></defs><path d="M594.39559111 501.12587852L1021.39904 74.12242963c21.55406222-21.55406222 21.55406222-57.08913778 0-78.6432l-2.33016889-2.33016888c-21.55406222-21.55406222-57.08913778-21.55406222-78.6432 0L513.42222222 420.73505185 86.41877334-6.85093925c-21.55406222-21.55406222-57.08913778-21.55406222-78.6432 0l-2.3301689 2.33016888c-22.13660445 21.55406222-22.13660445 57.08913778 0 78.6432l427.0034489 427.00344889L5.44540444 928.12932741c-21.55406222 21.55406222-21.55406222 57.08913778 0 78.6432l2.3301689 2.33016889c21.55406222 21.55406222 57.08913778 21.55406222 78.6432 0L513.42222222 582.09924741 940.42567111 1009.1026963c21.55406222 21.55406222 57.08913778 21.55406222 78.6432 0l2.33016889-2.33016889c21.55406222-21.55406222 21.55406222-57.08913778 0-78.6432L594.39559111 501.12587852z" p-id="2732" fill="#ffffff"></path></svg>