<?xml version="1.0" standalone="no"?><!DOCTYPE svg PUBLIC "-//W3C//DTD SVG 1.1//EN" "http://www.w3.org/Graphics/SVG/1.1/DTD/svg11.dtd"><svg t="1592900382326" class="icon" viewBox="0 0 1024 1024" version="1.1" xmlns="http://www.w3.org/2000/svg" p-id="3316" data-spm-anchor-id="a313x.7781069.0.i1" xmlns:xlink="http://www.w3.org/1999/xlink" width="32" height="32"><defs><style type="text/css"></style></defs><path d="M838.4 917.333333H183.466667A74.666667 74.666667 0 0 1 106.666667 844.8V219.733333a74.666667 74.666667 0 0 1 76.8-72.533333H533.333333a32 32 0 0 1 0 64H183.466667c-6.4 0-12.8 4.266667-12.8 8.533333v622.933334a12.8 12.8 0 0 0 12.8 10.666666h657.066666c6.4 0 12.8-4.266667 12.8-8.533333v-405.333333a32 32 0 1 1 64 0v403.2a78.933333 78.933333 0 0 1-78.933333 74.666666z" fill="#0C4C7F" p-id="3317"></path><path d="M437.333333 661.333333a40.533333 40.533333 0 0 1-21.333333-6.4 34.133333 34.133333 0 0 1-4.266667-44.8L814.933333 117.333333a34.133333 34.133333 0 0 1 44.8-4.266666 34.133333 34.133333 0 0 1 4.266667 44.8L460.8 650.666667a29.866667 29.866667 0 0 1-23.466667 10.666666z" fill="#0C4C7F" p-id="3318"></path></svg>