<?xml version="1.0" standalone="no"?><!DOCTYPE svg PUBLIC "-//W3C//DTD SVG 1.1//EN" "http://www.w3.org/Graphics/SVG/1.1/DTD/svg11.dtd"><svg t="1596078716110" class="icon" viewBox="0 0 1223 1024" version="1.1" xmlns="http://www.w3.org/2000/svg" p-id="25343" xmlns:xlink="http://www.w3.org/1999/xlink" width="57.328125" height="48"><defs><style type="text/css"></style></defs><path d="M1186.539683 780.190476c-28.444444-24.380952-56.888889-73.142857-199.111112-93.460317-142.222222-20.31746-117.84127-93.460317-117.841269-97.52381 0-12.190476 4.063492-56.888889 4.063492-56.888889 32.507937-28.444444 52.825397-60.952381 69.079365-101.587301 36.571429-20.31746 48.761905-24.380952 52.825397-48.761905 0 0 12.190476-93.460317-24.380953-93.460317 0 0-16.253968 4.063492-12.190476-20.317461 4.063492-40.634921 4.063492-77.206349 0-113.777778-4.063492-24.380952 4.063492-93.460317-48.761905-105.650793-20.31746-4.063492-36.571429 0-56.888889 0-16.253968-4.063492-36.571429-48.761905-69.079365-48.761905l-65.015873 12.190476c-32.507937 0-28.444444 8.126984-44.698412 12.190476-16.253968 0-32.507937 4.063492-48.761905 8.126985-24.380952 4.063492-40.634921 24.380952-52.825397 44.698412l4.063492 4.063492H629.84127c93.460317 16.253968 97.52381 117.84127 97.523809 150.349207v8.126984c4.063492 32.507937 4.063492 65.015873 0 101.587301l8.126984 8.126984c32.507937 36.571429 32.507937 101.587302 24.380953 138.158731v8.126984c-12.190476 44.698413-40.634921 65.015873-65.015873 77.206349-16.253968 32.507937-32.507937 60.952381-56.888889 85.333333 0 12.190476-4.063492 24.380952-4.063492 28.444445v12.190476c0 4.063492 20.31746 20.31746 69.079365 24.380952 138.15873 20.31746 186.920635 65.015873 227.555556 101.587302l8.126984 8.126984c20.31746 20.31746 32.507937 56.888889 40.63492 93.460317h243.809524c-4.063492 0-8.126984-117.84127-36.571428-146.285714z" p-id="25344" fill="#7da4d1"></path><path d="M889.904762 877.714286c-28.444444-24.380952-56.888889-73.142857-199.111111-93.460318-142.222222-20.31746-117.84127-93.460317-117.84127-97.523809 0-12.190476 4.063492-56.888889 4.063492-56.888889 32.507937-28.444444 52.825397-60.952381 69.079365-101.587302 36.571429-20.31746 48.761905-24.380952 52.825397-48.761905 0 0 12.190476-93.460317-24.380952-93.460317 0 0-16.253968 4.063492-12.190477-20.31746 4.063492-40.634921 4.063492-77.206349 0-113.777778-4.063492-24.380952 4.063492-93.460317-48.761904-105.650794-20.31746-4.063492-36.571429 0-56.888889 0-16.253968-4.063492-36.571429-48.761905-69.079365-48.761904l-65.015873 12.190476c-32.507937 0-28.444444 8.126984-44.698413 12.190476-16.253968 0-32.507937 0-48.761905 4.063492-52.825397 12.190476-69.079365 77.206349-73.142857 101.587302-4.063492 24.380952-4.063492 93.460317 0 130.031746 4.063492 24.380952-12.190476 24.380952-12.190476 24.380952-32.507937 0-16.253968 93.460317-16.253968 93.460317 4.063492 24.380952 0 36.571429 44.698412 52.825397 16.253968 40.634921 40.634921 73.142857 77.206349 93.460318 0 0 4.063492 40.634921 4.063493 69.079365-8.126984 0 12.190476 73.142857-130.031747 93.460317-142.222222 20.31746-170.666667 69.079365-199.111111 93.460318-24.380952 24.380952-24.380952 146.285714-24.380952 146.285714h922.412698c0-4.063492-4.063492-121.904762-32.507936-146.285714z m0 0" p-id="25345" data-spm-anchor-id="a313x.7781069.0.i6" fill="#7da4d1" class="selected"></path></svg>