<?xml version="1.0" standalone="no"?><!DOCTYPE svg PUBLIC "-//W3C//DTD SVG 1.1//EN" "http://www.w3.org/Graphics/SVG/1.1/DTD/svg11.dtd"><svg t="1592979403829" class="icon" viewBox="0 0 1024 1024" version="1.1" xmlns="http://www.w3.org/2000/svg" p-id="13061" xmlns:xlink="http://www.w3.org/1999/xlink" width="32" height="32"><defs><style type="text/css"></style></defs><path d="M532.28179001 79.67530839A38.3542347 38.3542347 0 0 1 558.08694331 70.13093663c9.85368011 0 18.47012684 3.5349525 25.8493402 10.73741824a33.75879644 33.75879644 0 0 1 0 50.01957796L200.3939365 512l383.54234701 381.11206717c7.33502645 7.15827883 11.04672658 15.68635174 11.04672659 25.62840566a32.56574996 32.56574996 0 0 1-11.04672659 25.00978898 37.02862751 37.02862751 0 0 1-25.8493402 10.11880156 38.3542347 38.3542347 0 0 1-25.8051533-9.54437176L125.36456955 538.20283546a38.39842162 38.39842162 0 0 1-11.04672658-26.77726523c0-9.94205392 3.66751323-18.47012684 11.04672658-25.62840569l406.91722046-406.12185615z m314.69914693 0A38.3542347 38.3542347 0 0 1 872.78609025 70.13093663c9.85368011 0 18.47012684 3.5349525 25.8493402 10.73741824a33.75879644 33.75879644 0 0 1 0 50.01957796L515.09308345 512l383.542347 381.11206717c7.37921337 7.15827883 11.04672658 15.68635174 11.04672658 25.62840566a32.56574996 32.56574996 0 0 1-11.04672658 25.00978898 37.02862751 37.02862751 0 0 1-25.8493402 10.11880156 38.3542347 38.3542347 0 0 1-25.80515331-9.54437176l-406.91722045-406.12185615a38.39842162 38.39842162 0 0 1-11.04672659-26.77726523c0-9.94205392 3.71170014-18.47012684 11.04672659-25.62840569l406.96140735-406.12185615z" p-id="13062"></path></svg>