<?xml version="1.0" standalone="no"?><!DOCTYPE svg PUBLIC "-//W3C//DTD SVG 1.1//EN" "http://www.w3.org/Graphics/SVG/1.1/DTD/svg11.dtd"><svg t="1594351887106" class="icon" viewBox="0 0 1024 1024" version="1.1" xmlns="http://www.w3.org/2000/svg" p-id="11594" xmlns:xlink="http://www.w3.org/1999/xlink" width="32" height="32"><defs><style type="text/css"></style></defs><path d="M921.95908266-387.117056L919.91108266-387.117056Z" p-id="11595" fill="#7da4d1"></path><path d="M809.08356266 348.87884801l0 347.92857598-90.763264 1e-8 0-347.928576 90.763264 1e-8Z" fill="#ffffff" p-id="11596" data-spm-anchor-id="a313x.7781069.0.i38" class="selected"></path><path d="M669.30756266 348.878848l0 347.928576-90.763264 0 0-347.928576 90.763264 0Z" fill="#ffffff" p-id="11597" data-spm-anchor-id="a313x.7781069.0.i37" class="selected"></path><path d="M529.53156266 348.878848l0 347.928576-90.761216 0 0-347.928576 90.761216 0Z" fill="#ffffff" p-id="11598" data-spm-anchor-id="a313x.7781069.0.i35" class="selected"></path><path d="M389.75556265 348.878848l0 347.928576-90.76121599 0 0-347.928576 90.76121599 0Z" fill="#ffffff" p-id="11599" data-spm-anchor-id="a313x.7781069.0.i34" class="selected"></path><path d="M249.97956266 348.878848l0 347.928576-90.761216-1e-8 0-347.92857598 90.761216-1e-8Z" fill="#7da4d1" p-id="11600" data-spm-anchor-id="a313x.7781069.0.i36" class=""></path><path d="M894.02845865 620.005376L937.08561066 620.005376l0-194.326528-43.055104 0 0-151.855104-813.379584 0 0 498.038784L894.02845865 771.862528 894.02845865 620.005376zM131.84682666 721.823744L131.84682666 323.862528l710.98368 0 0 397.961216L131.84682666 721.823744z" fill="#7da4d1" p-id="11601"></path></svg>