<?xml version="1.0" standalone="no"?><!DOCTYPE svg PUBLIC "-//W3C//DTD SVG 1.1//EN" "http://www.w3.org/Graphics/SVG/1.1/DTD/svg11.dtd"><svg t="1594300117826" class="icon" viewBox="0 0 1024 1024" version="1.1" xmlns="http://www.w3.org/2000/svg" p-id="3267" xmlns:xlink="http://www.w3.org/1999/xlink" width="32" height="32"><defs><style type="text/css"></style></defs><path d="M217.088 179.2h589.312c20.992 0 37.888 16.896 37.888 37.888v589.312c0 20.992-16.896 37.888-37.888 37.888H217.088c-20.992 0-37.888-16.896-37.888-37.888V217.088c0-20.992 16.896-37.888 37.888-37.888zM250.88 269.312v484.864c0 10.24 8.192 18.432 18.432 18.432h484.864c10.24 0 18.432-8.192 18.432-18.432V269.312c0-10.24-8.192-18.432-18.432-18.432H269.312c-10.24 0-18.432 8.192-18.432 18.432zM71.68 230.4V92.16c0-11.264 9.216-20.48 20.48-20.48h138.24c19.968 0 35.84-15.872 35.84-35.84s-15.872-35.84-35.84-35.84H40.96C18.432 0 0 18.432 0 40.96v189.44c0 19.968 15.872 35.84 35.84 35.84s35.84-15.872 35.84-35.84zM793.6 71.68h138.24c11.264 0 20.48 9.216 20.48 20.48v138.24c0 19.968 15.872 35.84 35.84 35.84s35.84-15.872 35.84-35.84V40.96c0-22.528-18.432-40.96-40.96-40.96h-189.44c-19.968 0-35.84 15.872-35.84 35.84s15.872 35.84 35.84 35.84zM952.32 793.6v138.24c0 11.264-9.216 20.48-20.48 20.48h-138.24c-19.968 0-35.84 15.872-35.84 35.84s15.872 35.84 35.84 35.84h189.44c22.528 0 40.96-18.432 40.96-40.96v-189.44c0-19.968-15.872-35.84-35.84-35.84s-35.84 15.872-35.84 35.84zM230.4 952.32H92.16c-11.264 0-20.48-9.216-20.48-20.48v-138.24c0-19.968-15.872-35.84-35.84-35.84s-35.84 15.872-35.84 35.84v189.44c0 22.528 18.432 40.96 40.96 40.96h189.44c19.968 0 35.84-15.872 35.84-35.84s-15.872-35.84-35.84-35.84z" p-id="3268"></path></svg>