<?xml version="1.0" standalone="no"?><!DOCTYPE svg PUBLIC "-//W3C//DTD SVG 1.1//EN" "http://www.w3.org/Graphics/SVG/1.1/DTD/svg11.dtd"><svg t="1600311132167" class="icon" viewBox="0 0 1024 1024" version="1.1" xmlns="http://www.w3.org/2000/svg" p-id="3870" data-spm-anchor-id="a313x.7781069.0.i4" xmlns:xlink="http://www.w3.org/1999/xlink" width="64" height="64"><defs><style type="text/css"></style></defs><path d="M147.456 840.704L41.984 731.136c-16.384-17.408-16.384-45.056 0-61.44 16.384-17.408 43.008-17.408 59.392 0L206.848 778.24l105.472-109.568c2.048-2.048 4.096-3.072 6.144-5.12-60.416-69.632-96.256-161.792-96.256-263.168C222.208 179.2 395.264 0 608.256 0c212.992 0 386.048 179.2 386.048 400.384S821.248 800.768 608.256 800.768c-86.016 0-165.888-29.696-229.376-78.848l-6.144 9.216L266.24 840.704l105.472 109.568c16.384 17.408 16.384 45.056 0 61.44-8.192 8.192-18.432 12.288-29.696 12.288s-21.504-4.096-29.696-12.288L206.848 902.144 101.376 1011.712c-8.192 8.192-18.432 12.288-29.696 12.288s-21.504-4.096-29.696-12.288c-16.384-17.408-16.384-45.056 0-61.44l105.472-109.568z m460.8-126.976c166.912 0 302.08-140.288 302.08-313.344 0-173.056-135.168-313.344-302.08-313.344S306.176 227.328 306.176 400.384c0 173.056 135.168 313.344 302.08 313.344z m0 0" p-id="3871" fill="#f06d71" data-spm-anchor-id="a313x.7781069.0.i5" class=""></path></svg>