<?xml version="1.0" standalone="no"?><!DOCTYPE svg PUBLIC "-//W3C//DTD SVG 1.1//EN" "http://www.w3.org/Graphics/SVG/1.1/DTD/svg11.dtd"><svg t="1592980281574" class="icon" viewBox="0 0 1024 1024" version="1.1" xmlns="http://www.w3.org/2000/svg" p-id="31799" xmlns:xlink="http://www.w3.org/1999/xlink" width="32" height="32"><defs><style type="text/css"></style></defs><path d="M512 5.12C330.752 5.12 163.328 101.888 73.216 258.56s-90.624 350.208 0 506.88S330.752 1018.88 512 1018.88c280.064 0 506.88-226.816 506.88-506.88S792.064 5.12 512 5.12z m-3.072 177.664c54.784 0 104.96 29.184 132.096 76.288s27.136 105.472 0 152.576-77.824 76.8-132.096 76.8c-84.48 0-152.576-68.608-152.576-152.576s68.096-153.088 152.576-153.088zM241.664 788.992c-1.536-156.672 74.752-253.952 171.008-291.84l98.304 164.352 103.936-160.768c92.672 40.448 165.888 136.704 167.424 288.256-169.984 67.584-349.696 72.192-540.672 0z" fill="#4C8AFE" p-id="31800"></path></svg>