<?xml version="1.0" standalone="no"?><!DOCTYPE svg PUBLIC "-//W3C//DTD SVG 1.1//EN" "http://www.w3.org/Graphics/SVG/1.1/DTD/svg11.dtd"><svg t="1596072760117" class="icon" viewBox="0 0 1024 1024" version="1.1" xmlns="http://www.w3.org/2000/svg" p-id="5678" xmlns:xlink="http://www.w3.org/1999/xlink" width="48" height="48"><defs><style type="text/css"></style></defs><path d="M76.17 947.84l890.43 0.16c31.41 0.15 56.74 5.61 56.58 37-0.15 31.19-25.39 38.85-56.58 39H56.86C25.45 1024 0 998.55 0 967.14V57.41C0.16 26 9.93 0.68 41.33 0.83c31.19 0.15 34.84 25.39 35 56.58l-0.16 890.43zM266.33 680c-21.6 22.8-51.2 42.6-74 21-22.65-21.44-6.22-58.14 15-81l203.71-216.33c20.76-22.15 55.29-24.08 78.39-4.37l168.3 143.61 219.25-277.74c19.46-24.64 45.7-34.64 70.36-15.17 24.65 19.46 9 47-2 64L723.33 604c-19.47 24.64-40.67 57.09-65.32 37.63-0.57-0.44-45.68-37.87-23.68-19.63l-177-145-191 203z" p-id="5679" fill="#8a8a8a"></path></svg>