<?xml version="1.0" standalone="no"?><!DOCTYPE svg PUBLIC "-//W3C//DTD SVG 1.1//EN" "http://www.w3.org/Graphics/SVG/1.1/DTD/svg11.dtd"><svg t="1592980186715" class="icon" viewBox="0 0 1034 1024" version="1.1" xmlns="http://www.w3.org/2000/svg" p-id="29326" xmlns:xlink="http://www.w3.org/1999/xlink" width="32.3125" height="32"><defs><style type="text/css"></style></defs><path d="M518.656 0c283.648 0 512 228.352 512 512s-228.352 511.488-512 511.488-512-227.84-512-511.488 228.352-512 512-512z" fill="#E6EFF9" p-id="29327"></path><path d="M761.856 892.928c-24.064-37.888-109.568-75.264-109.568-75.264l-65.024-11.776-53.76 117.76 9.728 99.84c90.112-4.096 174.08-31.744 246.272-76.288M519.68 793.6h-1.024z" fill="#515151" p-id="29328"></path><path d="M247.296 946.688c71.68 44.544 155.648 72.192 245.76 76.8l8.192-99.84-52.736-117.248-64 11.264s-85.504 37.376-109.568 75.264c-9.216 14.336-27.648 53.76-27.648 53.76zM518.144 793.6h-0.512z" fill="#333333" p-id="29329"></path><path d="M588.288 824.832l-140.288-0.512v-162.816h140.288V824.832z" fill="#FCCCA7" p-id="29330"></path><path d="M588.288 721.408l-140.288 82.944v-142.848h140.288v59.904z" fill="#EFAD7D" p-id="29331"></path><path d="M518.656 276.992h-1.536c-45.568 0-135.68 6.144-169.472 38.4-43.008 40.96-24.064 116.224-24.064 185.856 0 123.904 123.392 224.256 193.536 224.256h1.536V276.992z" fill="#FFDABE" p-id="29332"></path><path d="M518.656 276.992h1.536c64.512 0 150.016-0.512 185.856 58.88 21.504 35.84 7.68 118.784 7.68 165.376 0 123.904-123.392 224.256-193.536 224.256h-1.536V276.992z" fill="#FCD3B2" p-id="29333"></path><path d="M300.544 503.808c8.704 27.136 26.112 45.568 39.936 41.472 13.312-4.096 17.92-29.696 9.216-56.832 0.512-25.088-17.92-58.368-33.792-69.632s-29.184-0.512-29.696 24.576c-0.512 17.92 6.144 38.912 14.336 60.416z" fill="#FFDABE" p-id="29334"></path><path d="M750.592 443.392c-0.512-25.088-13.824-35.84-29.696-24.576-15.872 11.264-34.304 44.544-33.792 69.632-8.704 27.136-4.096 52.736 9.216 56.832 13.824 4.096 31.232-14.336 39.936-41.472 8.192-21.504 14.848-42.496 14.336-60.416z" fill="#FCD3B2" p-id="29335"></path><path d="M717.312 374.784s0-2.56 0 0c0-4.608 0-9.728-2.56-14.336-2.56-26.112-7.168-80.384-26.112-106.496 0 0-33.28-66.56-128-75.776-173.056-16.384-263.168 87.552-263.168 87.552s28.672 9.728 23.552 109.056c0 11.776-2.56 26.112-2.56 40.448v2.56c0 28.672 0 64 2.56 101.888 0 4.608 11.776 21.504 16.384-9.728 2.56-28.672 7.168-75.776 16.384-116.224 2.56-14.336 23.552-80.384 82.944-68.608 37.888 7.168 40.448 11.776 80.384 11.776 61.44 2.56 68.608-14.336 101.888-11.776 26.112 2.56 40.448 11.776 52.224 33.28 16.384 47.616 23.552 116.224 26.112 151.552 2.56 28.672 14.336 14.336 16.384 9.728 5.632-59.392 5.632-109.568 3.584-144.896z" fill="#3B2314" p-id="29336"></path><path d="M502.272 924.16l-56.832-126.464 71.68-3.584 75.264 3.584-57.856 126.464 9.728 99.328h-51.712l9.728-99.328z" fill="#E0ECFF" p-id="29337"></path><path d="M517.12 794.112l75.264 3.584-57.856 126.464 9.728 99.328h-25.088l-2.048-229.376z" fill="#FFFFFF" p-id="29338"></path><path d="M438.784 745.472l78.848 48.128-130.048 102.912v-102.912l51.2-48.128z m157.184 0l-78.848 48.128 130.048 102.912v-102.912l-51.2-48.128z" fill="#FFFFFF" p-id="29339"></path></svg>