<?xml version="1.0" standalone="no"?><!DOCTYPE svg PUBLIC "-//W3C//DTD SVG 1.1//EN" "http://www.w3.org/Graphics/SVG/1.1/DTD/svg11.dtd"><svg t="1599557498223" class="icon" viewBox="0 0 1024 1024" version="1.1" xmlns="http://www.w3.org/2000/svg" p-id="28802" width="32" height="32" xmlns:xlink="http://www.w3.org/1999/xlink"><defs><style type="text/css"></style></defs><path d="M923.93 536.272c-12.088 208.551-179.108 375.57-387.658 387.658v49.249a24.272 24.272 0 0 1-48.544 0V923.93c-208.551-12.088-375.57-179.108-387.658-387.658H50.82a24.272 24.272 0 0 1 0-48.544h49.249c12.088-208.55 179.108-375.57 387.658-387.658V50.82a24.272 24.272 0 0 1 48.544 0v49.249c208.55 12.088 375.57 179.108 387.658 387.658h48.715a24.272 24.272 0 1 1 0 48.544h-48.739z m-48.642 0H729.895a24.272 24.272 0 0 1 0-48.544h145.393C863.322 305.975 718 160.678 536.272 148.712v144.835a24.272 24.272 0 0 1-48.544 0V148.712C305.975 160.678 160.678 306 148.712 487.728h144.835a24.272 24.272 0 0 1 0 48.544H148.712C160.678 718.025 306 863.322 487.728 875.288V730.453a24.272 24.272 0 0 1 48.544 0v144.835C718.025 863.322 863.322 718 875.288 536.272zM512 560.546a48.546 48.546 0 1 1 0-97.092 48.546 48.546 0 0 1 0 97.092z" p-id="28803" data-spm-anchor-id="a313x.7781069.0.i31" fill="#3385ff" class="selected"></path></svg>