<?xml version="1.0" standalone="no"?><!DOCTYPE svg PUBLIC "-//W3C//DTD SVG 1.1//EN" "http://www.w3.org/Graphics/SVG/1.1/DTD/svg11.dtd"><svg t="1592982750902" class="icon" viewBox="0 0 1024 1024" version="1.1" xmlns="http://www.w3.org/2000/svg" p-id="33355" xmlns:xlink="http://www.w3.org/1999/xlink" width="32" height="32"><defs><style type="text/css"></style></defs><path d="M896 832c-32-57.6-70.4-96-140.8-115.2-44.8-12.8-89.6-38.4-128-70.4-32-25.6-38.4-44.8-12.8-83.2 32-51.2 64-108.8 70.4-172.8 12.8-96-6.4-217.6-140.8-256-25.6 0-44.8-6.4-76.8 6.4-134.4 51.2-147.2 192-115.2 313.6 12.8 44.8 38.4 83.2 64 115.2 19.2 32 12.8 51.2-12.8 70.4-38.4 38.4-83.2 64-134.4 76.8-64 19.2-108.8 57.6-140.8 115.2-12.8 51.2 6.4 64 57.6 64 217.6-6.4 428.8-6.4 646.4 0 51.2-6.4 70.4-19.2 64-64z" fill="#dddddd" p-id="33356" data-spm-anchor-id="a313x.7781069.0.i11" class="selected"></path></svg>