<?xml version="1.0" standalone="no"?><!DOCTYPE svg PUBLIC "-//W3C//DTD SVG 1.1//EN" "http://www.w3.org/Graphics/SVG/1.1/DTD/svg11.dtd"><svg t="1592792777948" class="icon" viewBox="0 0 1024 1024" version="1.1" xmlns="http://www.w3.org/2000/svg" p-id="3472" xmlns:xlink="http://www.w3.org/1999/xlink" width="32" height="32"><defs><style type="text/css"></style></defs><path d="M512 224c61.846 0 112-50.126 112-112S573.846 0 512 0 400 50.126 400 112s50.154 112 112 112z m0 192c-61.846 0-112 50.126-112 112 0 61.873 50.154 112 112 112s112-50.127 112-112c0-61.874-50.154-112-112-112z m0 384c-61.846 0-112 50.126-112 112 0 61.873 50.154 112 112 112s112-50.127 112-112c0-61.874-50.154-112-112-112z" fill="#8E8E8E" p-id="3473"></path></svg>