<?xml version="1.0" standalone="no"?><!DOCTYPE svg PUBLIC "-//W3C//DTD SVG 1.1//EN" "http://www.w3.org/Graphics/SVG/1.1/DTD/svg11.dtd"><svg t="1596160634296" class="icon" viewBox="0 0 1024 1024" version="1.1" xmlns="http://www.w3.org/2000/svg" p-id="17433" xmlns:xlink="http://www.w3.org/1999/xlink" width="48" height="48"><defs><style type="text/css"></style></defs><path d="M749.58 714.58H714.4c0-54.41 47.26-98.52 105.56-98.52 58.31 0 105.57 44.11 105.57 98.52h-35.19c0-36.28-31.51-65.68-70.38-65.68-38.86 0-70.38 29.4-70.38 65.68zM937.26 736.48H702.67c-12.03 0-21.94 8.45-23.29 19.32-0.12 0.84-0.17 1.7-0.17 2.57v164.22c0 1.87 0.25 3.68 0.73 5.41 2.57 9.48 11.77 16.49 22.73 16.49h234.59c12.95 0 23.46-9.81 23.46-21.9V758.37c0-12.08-10.51-21.89-23.46-21.89z m-117.3 54.74c19.44 0 35.19 14.7 35.19 32.84 0 9.22-4.12 17.49-10.7 23.42a35.519 35.519 0 0 1-6.89 4.87v31.24c0 9.44-7.88 17.11-17.6 17.11-9.71 0-17.59-7.67-17.59-17.11v-31.24c-10.47-5.69-17.6-16.17-17.6-28.29 0-10.65 5.43-20.11 13.84-26.1 5.92-4.23 13.32-6.74 21.35-6.74z" fill="#7da4d1" p-id="17434"></path><path d="M937.26 736.48H702.67c-12.03 0-21.94 8.45-23.29 19.32-0.12 0.84-0.17 1.7-0.17 2.57v164.22c0 1.87 0.25 3.68 0.73 5.41 2.57 9.48 11.77 16.49 22.73 16.49h234.59c12.95 0 23.46-9.81 23.46-21.9V758.37c0-12.08-10.51-21.89-23.46-21.89z m-117.3 54.74c19.44 0 35.19 14.7 35.19 32.84 0 9.22-4.12 17.49-10.7 23.42a35.519 35.519 0 0 1-6.89 4.87v31.24c0 9.44-7.88 17.11-17.6 17.11-9.71 0-17.59-7.67-17.59-17.11v-31.24c-10.47-5.69-17.6-16.17-17.6-28.29 0-10.65 5.43-20.11 13.84-26.1 5.92-4.23 13.32-6.74 21.35-6.74z m0-175.16c-58.3 0-105.56 44.11-105.56 98.52h35.18c0-36.28 31.52-65.68 70.38-65.68 38.87 0 70.38 29.4 70.38 65.68h35.19c0-54.41-47.26-98.52-105.57-98.52z" fill="#7da4d1" p-id="17435"></path><path d="M844.45 847.48a35.519 35.519 0 0 1-6.89 4.87v31.24c0 9.44-7.88 17.11-17.6 17.11-9.71 0-17.59-7.67-17.59-17.11v-31.24c-10.47-5.69-17.6-16.17-17.6-28.29 0-10.65 5.43-20.11 13.84-26.1-24.08-16.66-57.62-31.16-104.34-39.83 0 0-5.73-0.77-14.89-2.33-0.12 0.84-0.17 1.7-0.17 2.57v164.22c0 1.87 0.25 3.68 0.73 5.41h81.43l-18.31 0.26h116.23v-21.23s2.73-27.52-14.84-59.55zM641.77 489.66c23.92-34.56 25.91-74.43 25.91-74.43 0-2.98-0.23-6.08-1.12-8.94-1.91-6.13-6.37-9.39-10.27-14.05-4.66-5.58-5.19-12.07-4.16-19.04 1.98-13.33 3.55-26.6 4.27-40.06 1.51-28.26 1.53-57.42-3.34-85.37-0.67-5.61-1.91-11.18-3.35-16.63-4.82-18.24-12.83-36.04-24.97-50.59 0 0-51.33-57.47-207.44-69.43-20.85-1.6-41.85-0.78-62.74 0.32-9.28 0.49-24.62 0.93-26.33 9.88-1.91 9.92 7.58 16.77 4.78 26.1-0.75 2.48-2.01 4.81-3.38 6.99-4.9 7.82-11.89 14.34-18.88 20.26 0 0-37.21 32.56-38.54 73.1-5.93 34.03-5.38 88.38 0.86 122.2 1.64 8.91 4.21 17.32-4.37 25.24-6.94 6.4-11.11 10.05-11.11 20.02 0 0 1.99 39.87 25.92 74.43 23.92 34.55 83.06 77.08 91.04 167.46 3.74 42.45-1.33 46.52-1.33 46.52-9.3 36.54-142.21 54.49-142.21 54.49-174.59 30.35-165.03 148.9-165.03 148.9v21.22h440.75l32.6-0.25h90.08c-0.13-1.78-0.2-3.59-0.2-5.41V758.37c0-4.37 0.4-8.65 1.17-12.81-35.51-9.04-73.51-22.98-78.33-41.92 0 0-5.07-4.06-1.32-46.51 7.97-90.38 67.11-132.91 91.04-167.47zM499.28 864.79c1.8 3.79 1.14 8.45-1.99 11.59l-27.41 27.41c-3.98 3.98-10.44 3.98-14.43 0l-27.41-27.41c-3.13-3.13-3.79-7.8-1.99-11.59l18.21-84.7-16.22-16.22c-3.98-3.98-3.98-10.44 0-14.42l11.7-11.7h45.85l11.7 11.7c3.98 3.98 3.98 10.44 0 14.42l-16.21 16.22 18.2 84.7z" fill="#7da4d1" p-id="17436" data-spm-anchor-id="a313x.7781069.0.i9" class="selected"></path></svg>