<?xml version="1.0" standalone="no"?><!DOCTYPE svg PUBLIC "-//W3C//DTD SVG 1.1//EN" "http://www.w3.org/Graphics/SVG/1.1/DTD/svg11.dtd"><svg t="1599212219577" class="icon" viewBox="0 0 1371 1024" version="1.1" xmlns="http://www.w3.org/2000/svg" p-id="40349" xmlns:xlink="http://www.w3.org/1999/xlink" width="64.265625" height="48"><defs><style type="text/css"></style></defs><path d="M87.865191 936.12716 87.865191 0 0 0l0 1023.978964 43.933552 0 0 0.021036 1326.442142 0 0-87.865191L87.865191 936.134809 87.865191 936.12716zM941.183544 341.340345l-180.803977 0 0 505.232975 180.803977 0L941.183544 341.340345 941.183544 341.340345zM1194.645312 87.88049l-180.803977 0 0 758.69283 180.803977 0L1194.645312 87.88049 1194.645312 87.88049zM687.723688 175.747593 506.919711 175.747593l0 670.823815 180.803977 0L687.723688 175.747593 687.723688 175.747593zM430.880798 501.870977 250.084471 501.870977l0 344.702344 180.796328 0L430.880798 501.870977 430.880798 501.870977zM430.880798 501.870977" fill="#2a90df" p-id="40350"></path></svg>