<?xml version="1.0" standalone="no"?><!DOCTYPE svg PUBLIC "-//W3C//DTD SVG 1.1//EN" "http://www.w3.org/Graphics/SVG/1.1/DTD/svg11.dtd"><svg t="1599212393668" class="icon" viewBox="0 0 1024 1024" version="1.1" xmlns="http://www.w3.org/2000/svg" p-id="40489" xmlns:xlink="http://www.w3.org/1999/xlink" width="48" height="48"><defs><style type="text/css"></style></defs><path d="M165.674916 684.560972a37.886106 37.886106 0 0 0 24.830759-9.215539l213.032548-184.720364 206.888856 184.310784a37.886106 37.886106 0 0 0 52.98935-2.457477l296.791561-319.062447a37.937303 37.937303 0 1 0-55.549223-51.709414l-271.500025 291.927803-204.021799-181.853307a37.988501 37.988501 0 0 0-50.071096-0.307185L140.79296 617.953102a37.886106 37.886106 0 0 0 24.830759 66.60787z m-81.19914 286.705665a42.237888 42.237888 0 0 1-84.475776 0V42.237888a42.237888 42.237888 0 1 1 84.475776 0v928.926354z m-42.237888 42.18669a42.237888 42.237888 0 0 1 0-84.475776h939.473026a42.237888 42.237888 0 1 1 0 84.475776H42.237888z" fill="#D81E06" p-id="40490"></path></svg>