<?xml version="1.0" standalone="no"?><!DOCTYPE svg PUBLIC "-//W3C//DTD SVG 1.1//EN" "http://www.w3.org/Graphics/SVG/1.1/DTD/svg11.dtd"><svg t="1598925673349" class="icon" viewBox="0 0 1024 1024" version="1.1" xmlns="http://www.w3.org/2000/svg" p-id="13914" xmlns:xlink="http://www.w3.org/1999/xlink" width="48" height="48"><defs><style type="text/css"></style></defs><path d="M975.325867 900.130133H47.957333C21.504 900.130133 0 879.377067 0 853.879467V114.4832C0 88.951467 21.504 68.266667 47.957333 68.266667c26.487467 0 47.991467 20.6848 47.991467 46.216533v693.179733h879.377067c26.487467 0 47.991467 20.718933 47.991466 46.216534 0 25.4976-21.504 46.250667-47.991466 46.250666z m-111.9232-138.717866h-95.914667c-26.487467 0-47.991467-20.650667-47.991467-46.1824v-323.4816c0-25.531733 21.504-46.216533 47.991467-46.216534h95.914667c26.487467 0 47.991467 20.6848 47.991466 46.216534v323.4816c0 25.531733-21.504 46.1824-47.991466 46.1824z m-271.803734 0h-95.914666c-26.487467 0-47.991467-20.650667-47.991467-46.1824V206.882133c0-25.4976 21.504-46.1824 47.957333-46.1824h95.9488c26.487467 0 47.957333 20.6848 47.957334 46.1824v508.347734c0 25.531733-21.504 46.1824-47.957334 46.1824z m-271.803733 0h-95.914667c-26.5216 0-47.991467-20.650667-47.991466-46.1824v-92.398934c0-25.531733 21.504-46.216533 47.957333-46.216533h95.914667c26.487467 0 47.991467 20.6848 47.991466 46.216533v92.398934c0 25.531733-21.504 46.1824-47.957333 46.1824z" fill="#ffffff" p-id="13915"></path></svg>