<?xml version="1.0" standalone="no"?><!DOCTYPE svg PUBLIC "-//W3C//DTD SVG 1.1//EN" "http://www.w3.org/Graphics/SVG/1.1/DTD/svg11.dtd"><svg t="1599030775526" class="icon" viewBox="0 0 1024 1024" version="1.1" xmlns="http://www.w3.org/2000/svg" p-id="3893" xmlns:xlink="http://www.w3.org/1999/xlink" width="48" height="48"><defs><style type="text/css"></style></defs><path d="M945.9456 475.2L497.8688 35.26826667c-18.84159999-18.5472-49.55733333-18.5472-68.39893333 1e-8s-18.8416 48.8704 0 67.41759999L846.34026668 512 429.46986667 921.41226667c-18.84159999 18.5472-18.8416 48.77226667 0 67.31946665 19.03786667 18.5472 49.7536 18.5472 68.5952 1e-8l447.88053334-439.8336c10.50026667-10.10773333 14.52373333-23.65013333 13.73866666-36.89813333 0.8832-13.14986666-3.2384-26.59413333-13.73866667-36.8zM608.66133334 512c0.98133333-13.14986666-3.2384-26.59413333-13.54240001-36.8L146.944 35.46453333c-18.84159999-18.5472-49.55733333-18.5472-68.5952 0-18.84159999 18.5472-18.74346667 48.87039999 0 67.4176l417.06666667 409.11786667L78.54506666 921.41226667c-18.74346667 18.5472-18.8416 48.77226667 1e-8 67.31946666 19.03786667 18.5472 49.7536 18.5472 68.5952-1e-8l447.88053333-439.83359999c10.40213334-10.10773333 14.62186667-23.65013332 13.64053334-36.89813333z" fill="#2c2c2c" p-id="3894"></path></svg>