<?xml version="1.0" standalone="no"?><!DOCTYPE svg PUBLIC "-//W3C//DTD SVG 1.1//EN" "http://www.w3.org/Graphics/SVG/1.1/DTD/svg11.dtd"><svg t="1599641595667" class="icon" viewBox="0 0 1024 1024" version="1.1" xmlns="http://www.w3.org/2000/svg" p-id="41348" data-spm-anchor-id="a313x.7781069.0.i38" xmlns:xlink="http://www.w3.org/1999/xlink" width="32" height="32"><defs><style type="text/css"></style></defs><path d="M511.17368 386.870118 215.830115 517.40101l210.960713 0 42.190915 130.532939 295.345612-130.532939L553.366641 517.40101 511.17368 386.870118zM933.096129 430.380074l0-87.020936c0-48.057529-37.783535-87.021959-84.384899-87.021959l-717.266014 0c-46.601364 0-84.383876 38.96443-84.383876 87.021959l0 348.084767c0 48.077995 37.783535 87.020936 84.383876 87.020936l717.266014 0c46.601364 0 84.384899-38.942941 84.384899-87.020936l0-87.020936c23.279193 0 42.191938-19.461237 42.191938-43.51098l0-87.021959C975.288067 449.883267 956.375322 430.380074 933.096129 430.380074M890.903168 691.444928c0 24.049742-18.911722 43.51098-42.191938 43.51098l-717.266014 0c-23.321148 0-42.191938-19.461237-42.191938-43.51098L89.253278 343.359139c0-24.007787 18.87079-43.512003 42.191938-43.512003l717.266014 0c23.280216 0 42.191938 19.504216 42.191938 43.512003L890.903168 691.444928z" p-id="41349" data-spm-anchor-id="a313x.7781069.0.i39" class="" fill="#7da4d1"></path></svg>