<?xml version="1.0" standalone="no"?><!DOCTYPE svg PUBLIC "-//W3C//DTD SVG 1.1//EN" "http://www.w3.org/Graphics/SVG/1.1/DTD/svg11.dtd"><svg t="1596079429932" class="icon" viewBox="0 0 1024 1024" version="1.1" xmlns="http://www.w3.org/2000/svg" p-id="1788" xmlns:xlink="http://www.w3.org/1999/xlink" width="48" height="48"><defs><style type="text/css"></style></defs><path d="M537.6 179.2v52.352A281.6768 281.6768 0 0 1 792.4736 486.4H844.8v51.2h-52.352a281.6768 281.6768 0 0 1-254.8224 254.848L537.6 844.8h-51.2v-52.352C342.8864 779.52 230.4 658.8928 230.4 512H179.2v-51.2h55.8336c22.5792-122.88 124.928-217.856 251.392-229.248L486.4 179.2h51.2z m-25.6 102.4a230.4 230.4 0 1 0 0 460.8 230.4 230.4 0 0 0 0-460.8z m0 76.8a153.6 153.6 0 1 1 0 307.2 153.6 153.6 0 0 1 0-307.2z m0 25.6a128 128 0 1 0 0 256 128 128 0 0 0 0-256z m0 51.2a76.8 76.8 0 1 1 0 153.6 76.8 76.8 0 0 1 0-153.6z" p-id="1789" data-spm-anchor-id="a313x.7781069.0.i1" fill="#7da4d1" class="selected"></path></svg>