<?xml version="1.0" standalone="no"?><!DOCTYPE svg PUBLIC "-//W3C//DTD SVG 1.1//EN" "http://www.w3.org/Graphics/SVG/1.1/DTD/svg11.dtd"><svg t="1599615039029" class="icon" viewBox="0 0 1024 1024" version="1.1" xmlns="http://www.w3.org/2000/svg" p-id="4082" xmlns:xlink="http://www.w3.org/1999/xlink" width="48" height="48"><defs><style type="text/css"></style></defs><path d="M512 85.333333C347.050667 85.333333 213.333333 221.866667 213.333333 390.4c0 168.490667 298.666667 533.76 298.666667 533.76s298.666667-365.482667 298.666667-533.888C810.666667 221.909333 676.949333 85.333333 512 85.333333z m0 438.357334c-72.192 0-130.688-59.733333-130.688-133.418667 0-73.685333 58.453333-133.418667 130.688-133.418667 72.192 0 130.56 59.733333 130.56 133.418667 0 73.728-58.368 133.418667-130.56 133.418667z m132.053333 278.186666c-8.106667 11.477333-16.085333 22.528-23.808 32.981334 79.701333 9.386667 134.4 28.757333 134.4 51.285333 0 31.530667-108.629333 57.173333-242.56 57.173333-133.973333 0-242.645333-25.642667-242.645333-57.173333 0-22.528 54.698667-41.856 134.4-51.285333-7.978667-10.965333-16-21.930667-23.893333-32.981334-88.106667 16.042667-147.925333 47.658667-147.925334 84.138667C232.021333 938.538667 357.290667 981.333333 512 981.333333c154.666667 0 279.893333-42.794667 279.893333-95.317333 0-36.48-59.861333-68.010667-147.84-84.138667z" fill="#146ede" p-id="4083" data-spm-anchor-id="a313x.7781069.0.i17" class=""></path></svg>