<?xml version="1.0" standalone="no"?><!DOCTYPE svg PUBLIC "-//W3C//DTD SVG 1.1//EN" "http://www.w3.org/Graphics/SVG/1.1/DTD/svg11.dtd"><svg t="1593668573733" class="icon" viewBox="0 0 1024 1024" version="1.1" xmlns="http://www.w3.org/2000/svg" p-id="3725" data-spm-anchor-id="a313x.7781069.0.i5" xmlns:xlink="http://www.w3.org/1999/xlink" width="32" height="32"><defs><style type="text/css"></style></defs><path d="M866.4 476.27l42.04-59.68 33.51 23.61-42.04 59.68zM746.65 645.51l42.04-59.68 33.52 23.6-42.03 59.7zM805.16 560.87l42.04-59.69 33.52 23.61-42.03 59.69zM627.3 814.92l42.03-59.69 33.52 23.6-42.04 59.7zM686.62 730.85l42.03-59.69 33.53 23.61-42.04 59.68z" fill="#dddddd" p-id="3726"></path><path d="M609 840l-31 45c-10-5-21-8-33-8-11 0-23 3-33 8L166 476c8-11 12-26 12-40 0-12-3-25-9-35l281-260c10 5 22 9 35 9 18 0 33-6 46-17l40 29 24-34-41-29c2-7 3-15 3-22 0-40-32-73-73-73S412 37 412 78c0 12 3 24 8 34l-281 260c-10-5-22-8-33-8-40 0-73 32-73 73S65 510 106 510c10 0 20-2 28-5l348 410c-6 10-9 23-9 36 0 40 32 73 73 73s73-32 73-73c0-12-3-25-9-35l35-50-36-26zM485 56c11 0 21 9 21 21s-9 21-21 21c-11 0-21-9-21-21s10-21 21-21zM106 457c-11 0-21-9-21-21 0-11 9-21 21-21s21 9 21 21c0 11-10 21-21 21zM545 970c-11 0-21-9-21-21 0-11 9-21 21-21 11 0 21 9 21 21 0 11-9 21-21 21zM765.87 299.02l23.75-33.42 59.5 42.28-23.74 33.43zM851.14 358.7l23.74-33.43 59.52 42.27-23.74 33.43zM681.65 239.41l23.74-33.42 59.52 42.27-23.74 33.43z" fill="#dddddd" p-id="3727"></path><path d="M597 178.9l23.75-33.43 59.52 42.27-23.75 33.43zM518 393c34 0 61-27 61-61 0-34-27-61-61-61-34 0-61 27-61 61 0 35 27 61 61 61z m0-101c23 0 40 18 40 40s-18 40-40 40-40-18-40-40 18-40 40-40z" fill="#dddddd" p-id="3728"></path><path d="M520 548c-4 0-8-2-11-5-13-14-123-138-123-208 0-74 60-134 134-134s134 60 134 134c0 70-111 194-123 208-3 3-7 5-11 5z m0-318c-58 0-105 47-105 105 0 45 68 134 105 177 37-43 105-132 105-177 1-58-47-105-105-105z" fill="#dddddd" p-id="3729"></path><path d="M519 591c-56 0-116-14-116-44 0-17 19-30 53-38 5-1 10 2 11 7 1 5-2 10-7 11-28 8-38 17-38 20 0 7 33 25 97 25s97-17 97-25c0-4-11-14-43-20-5-1-8-6-7-11 1-5 6-8 11-7 38 7 59 21 59 39-1 29-61 43-117 43z" fill="#dddddd" p-id="3730"></path></svg>