<?xml version="1.0" standalone="no"?><!DOCTYPE svg PUBLIC "-//W3C//DTD SVG 1.1//EN" "http://www.w3.org/Graphics/SVG/1.1/DTD/svg11.dtd"><svg t="1596422100039" class="icon" viewBox="0 0 1024 1024" version="1.1" xmlns="http://www.w3.org/2000/svg" p-id="3905" data-spm-anchor-id="a313x.7781069.0.i1" xmlns:xlink="http://www.w3.org/1999/xlink" width="48" height="48"><defs><style type="text/css"></style></defs><path d="M948.727467 780.3584C858.576 926.554667 696.970667 1024 512.605867 1024 270.039467 1024 66.869333 855.317333 14.002133 628.855467a32.346667 32.346667 0 0 1-1.613866-7.1456c-0.221867-1.013333-0.439467-2.026667-0.654934-3.0432h0.465067a33.1872 33.1872 0 0 1-0.004267-0.533334c0-17.968 14.565333-32.533333 32.533334-32.533333 17.966933 0 32.533333 14.565333 32.533333 32.533333 0 0.178133-0.002133 0.356267-0.004267 0.533334h0.125867C125.237333 814.592 301.941333 960 512.605867 960c210.666667 0 387.370667-145.408 435.224533-341.333333h0.896v-1.066667c0-17.6736 14.327467-32 32-32 17.674667 0 32 14.3264 32 32v1.066667h0.753067a508.989867 508.989867 0 0 1-0.752 3.490133V820.266667c0 17.6736-14.327467 32-32 32-17.6736 0-32-14.3264-32-32v-39.908267zM76.8 243.6416C166.9504 97.445333 328.555733 0 512.920533 0 755.488 0 958.657067 168.682667 1011.525333 395.144533a32.3456 32.3456 0 0 1 1.613867 7.1456c0.2208 1.013333 0.439467 2.026667 0.654933 3.0432h-0.465066c0.0032 0.177067 0.004267 0.3552 0.004266 0.533334 0 17.968-14.565333 32.533333-32.533333 32.533333S948.266667 423.834667 948.266667 405.866667c0-0.178133 0.001067-0.356267 0.004266-0.533334h-0.126933C900.2912 209.408 723.586133 64 512.920533 64c-210.666667 0-387.370667 145.408-435.223466 341.333333H76.8v1.066667c0 17.6736-14.3264 32-32 32-17.6736 0-32-14.3264-32-32v-1.066667h-0.752c0.2464-1.1648 0.497067-2.328533 0.752-3.490133V203.733333c0-17.6736 14.3264-32 32-32 17.6736 0 32 14.3264 32 32v39.908267z" fill="#7da4d1" p-id="3906" data-spm-anchor-id="a313x.7781069.0.i2" class="selected"></path></svg>