<?xml version="1.0" standalone="no"?><!DOCTYPE svg PUBLIC "-//W3C//DTD SVG 1.1//EN" "http://www.w3.org/Graphics/SVG/1.1/DTD/svg11.dtd"><svg t="1596422183514" class="icon" viewBox="0 0 1024 1024" version="1.1" xmlns="http://www.w3.org/2000/svg" p-id="6293" data-spm-anchor-id="a313x.7781069.0.i8" xmlns:xlink="http://www.w3.org/1999/xlink" width="48" height="48"><defs><style type="text/css"></style></defs><path d="M515.549867 1008.366933C243.347911 1008.366933 22.755556 787.774578 22.755556 515.549867 22.755556 243.347911 243.347911 22.755556 515.549867 22.755556c272.224711 0 492.817067 220.592356 492.817066 492.794311 0 272.224711-220.592356 492.817067-492.817066 492.817066z m0-938.666666c-245.600711 0-445.8496 200.248889-445.8496 445.8496 0 245.623467 200.248889 445.872356 445.8496 445.872355 245.623467 0 445.872356-200.248889 445.872355-445.872355 0-245.600711-200.248889-445.8496-445.872355-445.8496z m35.999289 445.8496l190.850844-190.850845c9.398044-9.398044 9.398044-25.031111 0-35.976533l-1.570133-1.592889a24.553244 24.553244 0 0 0-34.4064 0l-190.8736 192.443733-190.850845-190.850844a24.553244 24.553244 0 0 0-34.429155 0l-1.547378 1.547378c-9.398044 9.398044-9.398044 25.031111 0 35.999289l190.850844 189.280711-190.850844 190.8736c-9.398044 9.375289-9.398044 25.031111 0 35.976533l1.547378 1.570133c9.398044 9.375289 25.031111 9.375289 34.429155 0l190.850845-192.420977 190.8736 190.850844c9.375289 9.398044 25.031111 9.398044 34.4064 0l1.570133-1.570133c9.398044-9.375289 9.398044-25.031111 0-35.976534l-190.850844-189.303466z" fill="#7da4d1" p-id="6294"></path></svg>