<?xml version="1.0" standalone="no"?><!DOCTYPE svg PUBLIC "-//W3C//DTD SVG 1.1//EN" "http://www.w3.org/Graphics/SVG/1.1/DTD/svg11.dtd"><svg t="1596422137229" class="icon" viewBox="0 0 1024 1024" version="1.1" xmlns="http://www.w3.org/2000/svg" p-id="4204" data-spm-anchor-id="a313x.7781069.0.i5" xmlns:xlink="http://www.w3.org/1999/xlink" width="48" height="48"><defs><style type="text/css"></style></defs><path d="M0 512a512 512 0 0 1 1024 0A512 512 0 0 1 0 512z m194.616889-92.16c0 0.284444 0 0.739556 0.113778 1.137778l0.113777 1.251555 0.113778 0.910223 0.227556 1.365333 0.113778 0.796444 0.341333 1.365334 0.113778 0.682666 0.341333 1.308445c0.113778 0.227556 0.113778 0.568889 0.170667 0.739555 0.113778 0.455111 0.227556 0.910222 0.455111 1.194667l0.341333 0.910222 0.398222 1.137778 0.341334 0.910222 0.455111 1.024 0.398222 1.137778c0.113778 0.113778 0.227556 0.568889 0.455111 0.682667l0.568889 1.137777a2.275556 2.275556 0 0 0 0.455111 0.682667l0.625778 1.251556a2.275556 2.275556 0 0 0 0.398222 0.568889l0.796445 1.251555 0.455111 0.682667 0.853333 1.137778 0.568889 0.739555 0.739555 0.910222 0.796445 0.910223 0.568889 0.796444 1.592889 1.592889 1.649777 1.536 0.739556 0.682667 0.853333 0.739555c0.341333 0.341333 0.682667 0.568889 1.024 0.739556l0.625778 0.568889 1.194667 0.910222 0.682666 0.398222c0.455111 0.170667 0.739556 0.568889 1.137778 0.739556 0.227556 0.113778 0.455111 0.227556 0.682667 0.455111l1.137778 0.682666c0.284444 0.113778 0.512 0.227556 0.739555 0.455111l1.194667 0.568889c0.227556 0 0.568889 0.113778 0.739555 0.341334 0.341333 0.227556 0.796444 0.341333 1.137778 0.455111l0.910222 0.455111 1.024 0.341333c0.341333 0.113778 0.796444 0.341333 1.137778 0.398222l0.796445 0.341334 1.251555 0.398222c0.227556 0.113778 0.568889 0.113778 0.739556 0.227556l1.308444 0.341333 0.739556 0.227555 1.422222 0.341334 0.739556 0.113778a6.371556 6.371556 0 0 0 1.479111 0.227555l0.796444 0.056889a5.290667 5.290667 0 0 0 1.365333 0.113778l1.137778 0.113778 0.910222 0.113777 2.275556 0.113778h543.118222a44.714667 44.714667 0 0 0 0-89.372444H347.022222l28.273778-28.444445A44.657778 44.657778 0 1 0 312.206222 280.462222L207.644444 384.853333l-1.536 1.706667-0.625777 0.682667-0.796445 0.910222a5.973333 5.973333 0 0 0-0.796444 0.967111l-0.568889 0.682667-0.796445 1.137777-0.455111 0.682667-0.796444 1.251556c-0.113778 0.170667-0.227556 0.398222-0.455111 0.568889l-0.568889 1.251555a2.275556 2.275556 0 0 1-0.455111 0.682667c-0.227556 0.398222-0.455111 0.682667-0.568889 1.137778-0.113778 0.227556-0.227556 0.568889-0.455111 0.796444-0.227556 0.341333-0.284444 0.739556-0.398222 1.137778l-0.455112 0.910222-0.341333 0.967111-0.398222 1.137778-0.341333 0.853333-0.455112 1.194667c-0.113778 0.227556-0.113778 0.568889-0.170666 0.796444l-0.341334 1.251556c-0.113778 0.227556-0.113778 0.455111-0.113777 0.682667l-0.341334 1.422222-0.113777 0.739555a6.314667 6.314667 0 0 0-0.227556 1.422223l-0.113778 0.910222c-0.113778 0.398222-0.113778 0.853333-0.113778 1.251555l-0.113777 1.137778-0.113778 1.137778-0.113778 2.161778c0 0.682667 0 1.479111 0.113778 2.161777-0.113778 0.568889 0 0.853333 0 1.137778v0.170667z m624.696889 215.779556a5.973333 5.973333 0 0 0 0.739555-0.967112l0.568889-0.682666 0.853334-1.137778 0.455111-0.682667c0.170667-0.455111 0.568889-0.796444 0.739555-1.194666a2.275556 2.275556 0 0 1 0.455111-0.625778l0.625778-1.251556a2.275556 2.275556 0 0 1 0.455111-0.682666l0.568889-1.137778a1.706667 1.706667 0 0 1 0.398222-0.796445c0.227556-0.341333 0.341333-0.739556 0.455111-1.137777l0.455112-0.910223 0.341333-0.967111 0.341333-1.137777 0.341334-0.853334 0.455111-1.137778 0.227555-0.853333 0.341334-1.251555c0.113778-0.227556 0.113778-0.455111 0.113777-0.682667l0.341334-1.422222 0.113777-0.739556a6.371556 6.371556 0 0 0 0.227556-1.422222v-0.910222c0.170667-0.398222 0.170667-0.853333 0.170667-1.251556l0.113777-1.137778 0.113778-1.137777 0.113778-2.161778c0-0.682667 0-1.479111-0.113778-2.161778l-0.113778-1.137778c0-0.227556 0-0.682667-0.113777-1.024l-0.113778-1.308444-0.056889-0.853334-0.227556-1.422222-0.113777-0.796444-0.341334-1.365334c-0.113778-0.227556-0.113778-0.455111-0.113777-0.682666l-0.341334-1.308445-0.227555-0.739555a3.925333 3.925333 0 0 0-0.455111-1.194667l-0.341334-0.910222-0.341333-1.137778-0.341333-0.910222-0.455112-1.024-0.455111-1.137778c-0.113778-0.113778-0.227556-0.568889-0.455111-0.682667l-0.568889-1.137777a2.275556 2.275556 0 0 0-0.398222-0.682667l-0.625778-1.251556-0.455111-0.568888c-0.227556-0.512-0.568889-0.853333-0.739555-1.251556l-0.455111-0.682667-0.853334-1.137777-0.568889-0.739556-0.739555-0.910222-0.796445-0.910222-0.682666-0.796445c-0.568889-0.568889-0.910222-1.137778-1.479111-1.592889l-1.706667-1.536-0.682667-0.625778-0.910222-0.796444a5.973333 5.973333 0 0 0-0.967111-0.739556l-0.625778-0.568888-1.194667-0.910223-0.682666-0.398222c-0.455111-0.170667-0.796444-0.568889-1.194667-0.739555a2.275556 2.275556 0 0 1-0.625778-0.455112l-1.251555-0.682666c-0.227556-0.113778-0.455111-0.227556-0.682667-0.455111l-1.137778-0.568889a1.706667 1.706667 0 0 1-0.796444-0.341334c-0.341333-0.227556-0.739556-0.341333-1.137778-0.455111l-0.910222-0.455111-0.967111-0.341333c-0.341333-0.113778-0.796444-0.341333-1.137778-0.398222l-0.853333-0.341334-1.137778-0.398222-0.853333-0.227555-1.251556-0.341334-0.796444-0.227555-1.365334-0.341334-0.796444-0.113777a6.371556 6.371556 0 0 0-1.422222-0.227556l-0.853334-0.056889c-0.455111-0.113778-0.910222-0.113778-1.308444-0.113778l-1.137778-0.113777-0.910222-0.113778-2.275556-0.113778h-543.288889a44.714667 44.714667 0 1 0 0 89.372444h435.370667l-28.330667 28.444445a44.657778 44.657778 0 1 0 63.089778 63.032889l104.618667-104.504889 1.479111-1.706667 0.682667-0.682666 0.910222-1.024z" fill="#7da4d1" p-id="4205"></path></svg>