<?xml version="1.0" standalone="no"?><!DOCTYPE svg PUBLIC "-//W3C//DTD SVG 1.1//EN" "http://www.w3.org/Graphics/SVG/1.1/DTD/svg11.dtd"><svg t="1599790456323" class="icon" viewBox="0 0 1024 1024" version="1.1" xmlns="http://www.w3.org/2000/svg" p-id="3500" xmlns:xlink="http://www.w3.org/1999/xlink" width="32" height="32"><defs><style type="text/css"></style></defs><path d="M59.2896 473.6c-10.9568 10.6496-15.2576 24.6784-14.336 38.4-0.8192 13.824 3.3792 27.9552 14.336 38.5024l467.3536 458.9568c19.6608 19.3536 51.712 19.3536 71.5776 0 19.6608-19.3536 19.6608-50.8928 0-70.2464L163.2256 512 598.2208 84.8896c19.6608-19.3536 19.6608-50.9952 0-70.3488-19.6608-19.3536-51.712-19.3536-71.3728 0L59.2896 473.6zM411.2384 512c-1.024 13.824 3.3792 27.9552 14.2336 38.5024l467.3536 458.9568c19.6608 19.3536 51.712 19.3536 71.5776 0 19.6608-19.3536 19.5584-50.8928 0-70.2464L529.408 512 964.608 85.0944c19.5584-19.3536 19.6608-50.9952 0-70.3488-19.8656-19.3536-51.9168-19.3536-71.5776 0L425.3696 473.6c-10.752 10.6496-15.1552 24.6784-14.1312 38.4z" fill="#ffffff" p-id="3501"></path></svg>