<?xml version="1.0" standalone="no"?><!DOCTYPE svg PUBLIC "-//W3C//DTD SVG 1.1//EN" "http://www.w3.org/Graphics/SVG/1.1/DTD/svg11.dtd"><svg t="1600151843844" class="icon" viewBox="0 0 1024 1024" version="1.1" xmlns="http://www.w3.org/2000/svg" p-id="2755" xmlns:xlink="http://www.w3.org/1999/xlink" width="32" height="32"><defs><style type="text/css"></style></defs><path d="M512 553.6m-144.96 0a144.96 144.96 0 1 0 289.92 0 144.96 144.96 0 1 0-289.92 0Z" p-id="2756" fill="#ffffff"></path><path d="M940.8 307.2h-183.488l-76.032-128a19.2 19.2 0 0 0-16.512-9.408H359.232A19.2 19.2 0 0 0 342.72 179.2L266.688 307.2H83.2a19.2 19.2 0 0 0-19.2 19.2v496a19.2 19.2 0 0 0 19.2 19.2h857.6a19.2 19.2 0 0 0 19.2-19.2V326.4a19.2 19.2 0 0 0-19.2-19.2z m-428.8 440.256A197.056 197.056 0 1 1 709.056 550.4 196.992 196.992 0 0 1 512 747.456z" p-id="2757" fill="#ffffff"></path></svg>