<?xml version="1.0" standalone="no"?><!DOCTYPE svg PUBLIC "-//W3C//DTD SVG 1.1//EN" "http://www.w3.org/Graphics/SVG/1.1/DTD/svg11.dtd"><svg t="1596176948127" class="icon" viewBox="0 0 1139 1024" version="1.1" xmlns="http://www.w3.org/2000/svg" p-id="33336" xmlns:xlink="http://www.w3.org/1999/xlink" width="53.390625" height="48"><defs><style type="text/css"></style></defs><path d="M802.210444 178.909993v-109.654512c-5.77129-34.627741-28.85645-63.484191-69.255481-69.255481h-363.591276c-34.627741 5.77129-63.484191 28.85645-69.255481 69.255481v109.654512h-201.995153c-51.941611 5.77129-98.111931 46.170321-98.111931 98.111931v167.367413h1136.944147v-167.367413c-5.77129-51.941611-46.170321-98.111931-98.111932-98.111931h-236.622893z m-98.111932 0h-300.107084v-40.399031c0-17.31387 11.54258-34.627741 28.85645-34.62774h236.622894c17.31387 0 34.627741 11.54258 34.62774 28.85645V178.909993z m-138.510962 461.703207c63.484191 0 69.255481-80.798061 69.255481-132.739672h-167.367412c0 40.399031 0 132.739672 69.255481 132.739672 0 5.77129 17.31387 0 28.85645 0z m138.510962-132.739672s51.941611 201.995153-150.053542 201.995153c-207.766443 0-150.053542-201.995153-150.053542-201.995153h-398.219016v409.761596c0 51.941611 46.170321 98.111931 98.111931 98.111931h934.948994c51.941611 0 98.111931-46.170321 98.111932-98.111931v-409.761596h-432.846757z" p-id="33337" data-spm-anchor-id="a313x.7781069.0.i21" fill="#707070" class="selected"></path></svg>