<?xml version="1.0" standalone="no"?><!DOCTYPE svg PUBLIC "-//W3C//DTD SVG 1.1//EN" "http://www.w3.org/Graphics/SVG/1.1/DTD/svg11.dtd"><svg t="1594350779328" class="icon" viewBox="0 0 1024 1024" version="1.1" xmlns="http://www.w3.org/2000/svg" p-id="9786" xmlns:xlink="http://www.w3.org/1999/xlink" width="32" height="32"><defs><style type="text/css"></style></defs><path d="M575.015385 519.876923L701.046154 393.846154c15.753846-15.753846 15.753846-47.261538 0-63.015385-15.753846-15.753846-47.261538-15.753846-63.015385 0L512 456.861538 385.969231 330.830769c-15.753846-15.753846-47.261538-15.753846-63.015385 0-15.753846 15.753846-15.753846 47.261538 0 63.015385l126.030769 126.030769L315.076923 645.907692c-15.753846 15.753846-15.753846 47.261538 0 63.015385s47.261538 15.753846 63.015385 0l126.030769-126.030769L630.153846 708.923077c15.753846 15.753846 47.261538 15.753846 63.015385 0 15.753846-15.753846 15.753846-47.261538 0-63.015385L575.015385 519.876923zM685.292308 70.892308c55.138462 23.630769 110.276923 55.138462 157.538461 102.4 47.261538 47.261538 78.769231 94.523077 102.4 157.538461 23.630769 55.138462 31.507692 118.153846 31.507693 181.169231 0 63.015385-7.876923 118.153846-31.507693 181.169231-23.630769 55.138462-55.138462 110.276923-102.4 157.538461-47.261538 47.261538-94.523077 78.769231-157.538461 102.4-55.138462 23.630769-118.153846 31.507692-181.169231 31.507693-63.015385 0-118.153846-7.876923-181.169231-31.507693-55.138462-23.630769-110.276923-55.138462-157.538461-102.4-47.261538-47.261538-78.769231-94.523077-102.4-157.538461C39.384615 638.030769 31.507692 575.015385 31.507692 512c0-63.015385 7.876923-118.153846 31.507693-181.169231 23.630769-55.138462 55.138462-110.276923 102.4-157.538461 47.261538-47.261538 94.523077-78.769231 157.538461-102.4S441.107692 39.384615 504.123077 39.384615 630.153846 47.261538 685.292308 70.892308z" fill="#d81e06" p-id="9787"></path></svg>