<?xml version="1.0" standalone="no"?><!DOCTYPE svg PUBLIC "-//W3C//DTD SVG 1.1//EN" "http://www.w3.org/Graphics/SVG/1.1/DTD/svg11.dtd"><svg t="1597980652657" class="icon" viewBox="0 0 1025 1024" version="1.1" xmlns="http://www.w3.org/2000/svg" p-id="4872" xmlns:xlink="http://www.w3.org/1999/xlink" width="48.046875" height="48"><defs><style type="text/css"></style></defs><path d="M566.26176 814.08c-15.36 15.36-33.28 23.04-53.76 23.04-20.48 0-38.4-7.68-53.76-23.04-15.36-15.36-23.04-33.28-23.04-53.76 0-20.48 7.68-38.4 23.04-53.76 15.36-15.36 33.28-23.04 53.76-23.04 20.48 0 38.4 7.68 53.76 23.04 15.36 15.36 23.04 33.28 23.04 53.76C589.30176 780.8 581.62176 798.72 566.26176 814.08L566.26176 814.08 566.26176 814.08zM458.74176 302.08c15.36-15.36 33.28-23.04 56.32-23.04 23.04 0 40.96 7.68 56.32 23.04 12.8 15.36 20.48 35.84 20.48 58.88 0 20.48-30.72 166.4-40.96 273.92l-71.68 0c-7.68-107.52-40.96-256-40.96-273.92C435.70176 337.92 443.38176 320 458.74176 302.08L458.74176 302.08 458.74176 302.08zM1004.02176 806.4 602.10176 104.96c-48.64-84.48-130.56-84.48-179.2 0L20.98176 806.4c-48.64 84.48-10.24 156.16 89.6 156.16l803.84 0C1011.70176 960 1052.66176 890.88 1004.02176 806.4L1004.02176 806.4 1004.02176 806.4zM1004.02176 806.4" fill="#d81e06" p-id="4873"></path></svg>