<?xml version="1.0" standalone="no"?><!DOCTYPE svg PUBLIC "-//W3C//DTD SVG 1.1//EN" "http://www.w3.org/Graphics/SVG/1.1/DTD/svg11.dtd"><svg t="1597980644999" class="icon" viewBox="0 0 1024 1024" version="1.1" xmlns="http://www.w3.org/2000/svg" p-id="4592" xmlns:xlink="http://www.w3.org/1999/xlink" width="48" height="48"><defs><style type="text/css"></style></defs><path d="M115.456 810.752h775.7312L503.296 217.4976 115.456 810.752z m834.0992-4.2496a35.84 35.84 0 0 1-29.952 55.4496H87.04a35.84 35.84 0 0 1-30.0032-55.4496l416.256-636.672a35.84 35.84 0 0 1 60.0064 0l416.256 636.672zM466.5344 358.4h65.3312l-12.032 267.4688h-41.2672L466.5344 358.4z m32.4096 298.3424c11.4688 0 20.736 3.4816 27.648 10.4448 7.3728 6.6048 11.008 15.4624 11.008 26.624a36.864 36.864 0 0 1-10.9568 27.136 40.96 40.96 0 0 1-27.6992 10.496 36.3008 36.3008 0 0 1-26.624-11.008 35.4816 35.4816 0 0 1-11.52-26.624c0-11.1616 3.84-20.0192 11.4688-26.624a36.096 36.096 0 0 1 26.624-10.4448z" fill="#FFB54C" p-id="4593"></path></svg>