<?xml version="1.0" standalone="no"?><!DOCTYPE svg PUBLIC "-//W3C//DTD SVG 1.1//EN" "http://www.w3.org/Graphics/SVG/1.1/DTD/svg11.dtd"><svg t="1597980649742" class="icon" viewBox="0 0 1170 1024" version="1.1" xmlns="http://www.w3.org/2000/svg" p-id="4732" xmlns:xlink="http://www.w3.org/1999/xlink" width="54.84375" height="48"><defs><style type="text/css"></style></defs><path d="M681.476389 43.885714c0 4.900571 9.728 14.628571 24.356571 38.985143 14.628571 24.429714 29.257143 48.786286 48.786286 87.771429 19.456 39.058286 43.885714 73.142857 68.242285 117.028571 24.356571 43.885714 53.613714 87.771429 78.043429 131.657143 24.356571 43.885714 53.613714 92.672 77.970286 136.557714 24.429714 43.885714 48.786286 87.771429 73.142857 121.929143 19.529143 38.985143 39.058286 68.242286 58.514286 97.499429 19.529143 29.257143 24.429714 43.885714 34.157714 53.613714 9.728 19.529143 19.529143 39.058286 19.529143 58.514286 4.827429 19.529143 0 34.157714-4.900572 53.686857-4.900571 19.456-14.628571 29.257143-24.356571 38.985143-14.628571 9.728-29.257143 14.628571-48.786286 14.628571H101.16096c-29.257143 0-53.613714-4.900571-68.242286-14.628571a75.849143 75.849143 0 0 1-29.257143-38.985143 83.090286 83.090286 0 0 1 0-48.786286 131.657143 131.657143 0 0 1 24.356572-53.613714c4.900571-9.801143 14.628571-24.429714 29.257143-53.686857 14.628571-24.356571 34.157714-58.514286 58.514285-92.598857 24.429714-39.058286 48.786286-78.043429 73.142858-121.929143 24.429714-43.885714 53.686857-92.672 82.944-136.557715 29.257143-43.885714 53.613714-92.598857 77.970285-136.484571 24.429714-43.885714 48.786286-82.944 68.315429-117.028571 19.456-34.157714 38.985143-63.414857 53.613714-87.771429l24.356572-39.058286c9.801143-14.628571 24.429714-29.257143 43.885714-38.985143 19.529143-9.728 34.157714-14.628571 53.686857-14.628571 19.456 0 34.084571 4.900571 53.613714 9.728 9.728 4.900571 24.356571 19.529143 34.157715 34.157714z m-29.257143 224.329143c0-9.801143 0-19.529143-4.900572-24.429714a67.291429 67.291429 0 0 0-14.628571-19.456c-4.900571-4.900571-14.628571-9.801143-24.356572-14.628572-9.801143-4.900571-19.529143-9.801143-29.257142-9.801142-19.529143 0-34.157714 4.900571-48.786286 19.529142s-24.356571 29.257143-24.356572 48.786286V570.514286c0 19.529143 9.728 34.157714 24.356572 48.786285s29.257143 19.456 48.786286 19.456c19.456 0 34.084571-4.827429 48.713142-19.456s24.429714-29.257143 24.429715-48.786285V268.214857z m-73.142857 438.857143c-19.529143 0-39.058286 4.827429-48.786286 19.456s-19.529143 29.257143-19.529143 48.786286 4.900571 38.985143 19.529143 48.786285c14.628571 14.628571 29.257143 19.456 48.786286 19.456 19.456 0 38.985143-4.827429 48.713142-19.456 14.628571-14.628571 19.529143-29.257143 19.529143-48.786285s-4.900571-38.985143-19.529143-48.786286c-9.728-14.628571-29.257143-19.456-48.713142-19.456z" fill="#F5A623" p-id="4733"></path></svg>