<?xml version="1.0" standalone="no"?><!DOCTYPE svg PUBLIC "-//W3C//DTD SVG 1.1//EN" "http://www.w3.org/Graphics/SVG/1.1/DTD/svg11.dtd"><svg t="1597980655697" class="icon" viewBox="0 0 1024 1024" version="1.1" xmlns="http://www.w3.org/2000/svg" p-id="5012" xmlns:xlink="http://www.w3.org/1999/xlink" width="48" height="48"><defs><style type="text/css"></style></defs><path d="M550.5 140.6c-8.6-14.8-23.5-22.2-38.5-22.2s-30 7.4-38.5 22.2L70.3 839c-17.1 29.7 4.3 66.7 38.5 66.7h806.4c34.2 0 55.6-37.1 38.5-66.7L550.5 140.6zM142.6 841.7L512 201.9l369.4 639.8H142.6z" fill="#d81e06" p-id="5013"></path><path d="M471.3 442.1l8.5 209.6c0.7 17.3 14.9 30.9 32.2 30.9 17.3 0 31.5-13.6 32.2-30.9l8.5-209.6c0.9-23.1-17.6-42.4-40.7-42.4-23.2 0-41.7 19.2-40.7 42.4z" fill="#d81e06" p-id="5014"></path><path d="M512 745.7m-32 0a32 32 0 1 0 64 0 32 32 0 1 0-64 0Z" fill="#d81e06" p-id="5015"></path></svg>